<svg width="148" height="30" viewBox="0 0 148 30" fill="none" xmlns="http://www.w3.org/2000/svg">
<path d="M14.148 28.252C11.82 28.252 9.696 27.712 7.776 26.632C5.856 25.528 4.332 24.004 3.204 22.06C2.1 20.092 1.548 17.884 1.548 15.436C1.548 12.988 2.1 10.792 3.204 8.848C4.332 6.88 5.856 5.356 7.776 4.276C9.696 3.172 11.82 2.62 14.148 2.62C16.5 2.62 18.636 3.172 20.556 4.276C22.476 5.356 23.988 6.868 25.092 8.812C26.196 10.756 26.748 12.964 26.748 15.436C26.748 17.908 26.196 20.116 25.092 22.06C23.988 24.004 22.476 25.528 20.556 26.632C18.636 27.712 16.5 28.252 14.148 28.252ZM14.148 25.408C15.9 25.408 17.472 25 18.864 24.184C20.28 23.368 21.384 22.204 22.176 20.692C22.992 19.18 23.4 17.428 23.4 15.436C23.4 13.42 22.992 11.668 22.176 10.18C21.384 8.668 20.292 7.504 18.9 6.688C17.508 5.872 15.924 5.464 14.148 5.464C12.372 5.464 10.788 5.872 9.396 6.688C8.004 7.504 6.9 8.668 6.084 10.18C5.292 11.668 4.896 13.42 4.896 15.436C4.896 17.428 5.292 19.18 6.084 20.692C6.9 22.204 8.004 23.368 9.396 24.184C10.812 25 12.396 25.408 14.148 25.408ZM44.2488 10.252C44.2488 12.34 43.5288 14.08 42.0888 15.472C40.6728 16.84 38.5008 17.524 35.5728 17.524H30.7488V28H27.4728V2.908H35.5728C38.4048 2.908 40.5528 3.592 42.0168 4.96C43.5048 6.328 44.2488 8.092 44.2488 10.252ZM35.5728 14.824C37.3968 14.824 38.7408 14.428 39.6048 13.636C40.4688 12.844 40.9008 11.716 40.9008 10.252C40.9008 7.156 39.1248 5.608 35.5728 5.608H30.7488V14.824H35.5728ZM47.9964 5.572V13.96H57.1404V16.66H47.9964V25.3H58.2204V28H44.7204V2.872H58.2204V5.572H47.9964ZM79.3055 28H76.0295L62.8535 8.02V28H59.5775V2.872H62.8535L76.0295 22.816V2.872H79.3055V28ZM99.8516 15.076C100.764 15.22 101.592 15.592 102.336 16.192C103.104 16.792 103.704 17.536 104.136 18.424C104.592 19.312 104.82 20.26 104.82 21.268C104.82 22.54 104.496 23.692 103.848 24.724C103.2 25.732 102.252 26.536 101.004 27.136C99.7796 27.712 98.3276 28 96.6476 28H87.2876V2.908H96.2876C97.9916 2.908 99.4436 3.196 100.644 3.772C101.844 4.324 102.744 5.08 103.344 6.04C103.944 7 104.244 8.08 104.244 9.28C104.244 10.768 103.836 12.004 103.02 12.988C102.228 13.948 101.172 14.644 99.8516 15.076ZM90.5636 13.744H96.0716C97.6076 13.744 98.7956 13.384 99.6356 12.664C100.476 11.944 100.896 10.948 100.896 9.676C100.896 8.404 100.476 7.408 99.6356 6.688C98.7956 5.968 97.5836 5.608 95.9996 5.608H90.5636V13.744ZM96.3596 25.3C97.9916 25.3 99.2636 24.916 100.176 24.148C101.088 23.38 101.544 22.312 101.544 20.944C101.544 19.552 101.064 18.46 100.104 17.668C99.1436 16.852 97.8596 16.444 96.2516 16.444H90.5636V25.3H96.3596ZM141.773 28L135.797 17.74H131.837V28H128.561V2.908H136.661C138.557 2.908 140.153 3.232 141.449 3.88C142.769 4.528 143.753 5.404 144.401 6.508C145.049 7.612 145.373 8.872 145.373 10.288C145.373 12.016 144.869 13.54 143.861 14.86C142.877 16.18 141.389 17.056 139.397 17.488L145.697 28H141.773ZM131.837 15.112H136.661C138.437 15.112 139.769 14.68 140.657 13.816C141.545 12.928 141.989 11.752 141.989 10.288C141.989 8.8 141.545 7.648 140.657 6.832C139.793 6.016 138.461 5.608 136.661 5.608H131.837V15.112Z" fill="#212121"/>
<path d="M123.926 9.05186L115.834 26.0727L108.579 9.05186H123.926Z" fill="#E8A404"/>
<path d="M106 3L108.579 9.05186M126.803 3L123.926 9.05186M123.926 9.05186L115.834 26.0727L108.579 9.05186M123.926 9.05186H108.579" stroke="black" stroke-width="1.91692"/>
</svg>
